<svg xmlns="http://www.w3.org/2000/svg" xmlns:xlink="http://www.w3.org/1999/xlink" viewBox="0 0 646.21 417.53"><defs><linearGradient id="a" x1="205.42" y1="227.84" x2="102.93" y2="410.85" gradientUnits="userSpaceOnUse"><stop offset="0" stop-color="#00eaf3"/><stop offset="1" stop-color="#d0e2f4" stop-opacity="0"/></linearGradient><linearGradient id="e" x1="214.43" y1="221.03" x2="135.29" y2="364.92" gradientUnits="userSpaceOnUse"><stop offset="0" stop-color="#248ca8"/><stop offset="1" stop-color="#5ec4db"/></linearGradient><linearGradient id="h" x1="583.3" y1="153.55" x2="625.69" y2="62.63" xlink:href="#a"/><linearGradient id="i" x1="586.82" y1="146" x2="622.31" y2="69.89" xlink:href="#a"/><linearGradient id="j" x1="476.56" y1="91.88" x2="518.96" y2=".96" xlink:href="#a"/><linearGradient id="k" x1="480.08" y1="84.33" x2="515.57" y2="8.22" xlink:href="#a"/><linearGradient id="l" x1="212.79" y1="170.49" x2="320.95" y2="335.12" gradientUnits="userSpaceOnUse"><stop offset="0" stop-color="#c7d9eb"/><stop offset=".15" stop-color="#eaf3fc"/><stop offset=".64" stop-color="#eaf3fc"/><stop offset="1" stop-color="#c7d9eb"/></linearGradient><linearGradient id="c" x1="437.96" y1="119.62" x2="383.86" y2="76.06" gradientUnits="userSpaceOnUse"><stop offset="0" stop-color="#c7d9eb"/><stop offset="1" stop-color="#eaf3fc"/></linearGradient><linearGradient id="b" x1="461.94" y1="61.83" x2="456.55" y2="60" gradientUnits="userSpaceOnUse"><stop offset="0" stop-color="#bacddd"/><stop offset="1" stop-color="#bacddd" stop-opacity="0"/></linearGradient><linearGradient id="m" x1="469.35" y1="66.11" x2="463.96" y2="64.28" xlink:href="#b"/><linearGradient id="n" x1="476.78" y1="70.33" x2="471.39" y2="68.51" xlink:href="#b"/><linearGradient id="o" x1="484.19" y1="74.75" x2="478.8" y2="72.92" xlink:href="#b"/><linearGradient id="p" x1="491.71" y1="79.08" x2="486.32" y2="77.25" xlink:href="#b"/><linearGradient id="q" x1="499.17" y1="83.36" x2="493.78" y2="81.53" xlink:href="#b"/><linearGradient id="r" x1="506.68" y1="87.63" x2="501.29" y2="85.81" xlink:href="#b"/><linearGradient id="s" x1="514.18" y1="92.06" x2="508.79" y2="90.24" xlink:href="#b"/><linearGradient id="t" x1="521.64" y1="96.34" x2="516.25" y2="94.52" xlink:href="#b"/><linearGradient id="u" x1="529.09" y1="100.67" x2="523.7" y2="98.85" xlink:href="#b"/><linearGradient id="v" x1="408.49" y1="97.9" x2="578.87" y2="106.62" xlink:href="#c"/><linearGradient id="w" x1="485.24" y1="29.24" x2="511.65" y2="29.24" xlink:href="#c"/><linearGradient id="d" x1="155.16" y1="270.55" x2="146.72" y2="348.46" gradientUnits="userSpaceOnUse"><stop offset="0" stop-color="#023189"/><stop offset="1" stop-color="#00eaf3"/></linearGradient><linearGradient id="x" x1="202.29" y1="306.48" x2="142.74" y2="363.88" xlink:href="#d"/><linearGradient id="y" x1="92.67" y1="306.18" x2="153.21" y2="354.97" xlink:href="#d"/><linearGradient id="z" x1="270.23" y1="241.12" x2="281.79" y2="200.99" xlink:href="#c"/><linearGradient id="A" x1="246.93" y1="286.26" x2="284.35" y2="212.79" xlink:href="#a"/><linearGradient id="B" x1="391.46" y1="535.8" x2="251.54" y2="236.57" xlink:href="#a"/><linearGradient id="C" x1="496.2" y1="296.1" x2="475.79" y2="206.3" xlink:href="#c"/><linearGradient id="D" x1="535.85" y1="359.4" x2="465.89" y2="181.8" xlink:href="#a"/><linearGradient id="E" x1="233.82" y1="243.77" x2="314.98" y2="137.09" xlink:href="#a"/><linearGradient id="F" x1="234.63" y1="244.62" x2="319.17" y2="133.52" xlink:href="#a"/><linearGradient id="G" x1="421.26" y1="124.89" x2="693.25" y2="15.09" xlink:href="#c"/><linearGradient id="H" x1="421.66" y1="98.98" x2="527.77" y2="-5.83" xlink:href="#c"/><linearGradient id="I" x1="474.08" y1="76.41" x2="511.85" y2="39.1" xlink:href="#c"/><linearGradient id="J" x1="481.62" y1="80.7" x2="519.31" y2="43.47" xlink:href="#c"/><linearGradient id="K" x1="489.09" y1="85.04" x2="526.81" y2="47.77" xlink:href="#c"/><linearGradient id="L" x1="496.58" y1="89.37" x2="534.32" y2="52.1" xlink:href="#c"/><linearGradient id="M" x1="504.1" y1="93.65" x2="541.76" y2="56.46" xlink:href="#c"/><linearGradient id="N" x1="511.57" y1="97.95" x2="549.21" y2="60.77" xlink:href="#c"/><linearGradient id="O" x1="518.99" y1="102.33" x2="556.76" y2="65.03" xlink:href="#c"/><linearGradient id="P" x1="-701.45" y1="1248.32" x2="1648.73" y2="-1073.02" xlink:href="#c"/><linearGradient id="Q" x1="381.37" y1="178" x2="626.39" y2="178" gradientUnits="userSpaceOnUse"><stop offset="0" stop-color="#248ca8" stop-opacity="0"/><stop offset=".48" stop-color="#248ca8"/><stop offset="1" stop-color="#5ec4db"/></linearGradient><linearGradient id="R" x1="236.03" y1="249.3" x2="302.87" y2="153.87" xlink:href="#d"/><linearGradient id="S" x1="298.64" y1="299.91" x2="429.92" y2="299.91" xlink:href="#a"/><linearGradient id="T" x1="290.63" y1="307.55" x2="416.89" y2="307.55" xlink:href="#a"/><linearGradient id="U" x1="185.2" y1="393.16" x2="163.09" y2="402.8" xlink:href="#e"/><linearGradient id="V" x1="205.42" y1="207.33" x2="102.93" y2="390.34" xlink:href="#a"/><linearGradient id="f" x1="476.89" y1="128.77" x2="467.25" y2="118.16" gradientUnits="userSpaceOnUse"><stop offset="0" stop-color="#062066"/><stop offset="1" stop-color="#004999"/></linearGradient><linearGradient id="W" x1="518.98" y1="92.16" x2="494.89" y2="65.64" xlink:href="#f"/><linearGradient id="X" x1="466.2" y1="132.65" x2="451.75" y2="116.75" xlink:href="#f"/><linearGradient id="Y" x1="490.39" y1="92.3" x2="471.36" y2="71.36" xlink:href="#f"/><linearGradient id="Z" x1="464.04" y1="94.75" x2="452.18" y2="81.7" xlink:href="#f"/><linearGradient id="g" x1="497.54" y1="71.17" x2="501.07" y2="65.28" gradientUnits="userSpaceOnUse"><stop offset="0" stop-color="#eabb9b"/><stop offset="1" stop-color="#f4ccb0"/></linearGradient><linearGradient id="aa" x1="453.28" y1="89.5" x2="448.71" y2="87.88" xlink:href="#g"/><linearGradient id="ab" x1="417.89" y1="91.25" x2="511.55" y2="146.01" gradientUnits="userSpaceOnUse"><stop offset="0" stop-color="#508bfa"/><stop offset="1" stop-color="#5028e8"/></linearGradient><linearGradient id="ac" x1="466.45" y1="51.55" x2="457.61" y2="56.56" xlink:href="#g"/><linearGradient id="ad" x1="463.12" y1="46.98" x2="456.36" y2="50.81" xlink:href="#f"/><linearGradient id="ae" x1="465.83" y1="42.19" x2="448.3" y2="38.65" xlink:href="#g"/><linearGradient id="af" x1="491.28" y1="82.53" x2="453.74" y2="67.13" gradientUnits="userSpaceOnUse"><stop offset="0" stop-color="#7f329e"/><stop offset="1" stop-color="#e353c6"/></linearGradient><linearGradient id="ag" x1="469.63" y1="44.6" x2="449.14" y2="22.05" xlink:href="#f"/></defs><g data-name="Vrstva 2"><g data-name="Vrstva 1"><g data-name="latoun"><path d="M242.11 278.64c31.3 18.07 31.46 47.38.36 65.45l-94 54.61-113.32-65.45 94-54.61c31.06-18.07 81.65-18.07 112.96 0z" fill="url(#a)"/><path fill="url(#e)" d="M14.89 306.22l-11 6.71 31.26 18.31 95.21-55.17 13.02-5.68 17.52-4.5 19.65-2.61 21.31 1.42 17.52 3.32 17.05 6.15 13.02 7.82 7.1 6.39 4.98 6.63 3.31 9 64.96-1.84-156.91-85.86-158 89.91z"/><path d="M583 62.15l24.28 14 32.84 47.51s-2.47-40.11 6.07-50.55c-20.85.47-55.48-14.24-63.19-10.96z" fill="url(#h)"/><path d="M583 62.15l24.28 14 32.84 47.51s-11.95-35.84-3.41-46.28c-20.86.47-46-18.51-53.71-15.23z" fill="url(#i)"/><path fill="#00c9e7" d="M607.3 76.14l-5.2 2.97 32.84 47.51 5.2-2.97-32.84-47.51z"/><path fill="#00eaf3" d="M607.3 76.14l-24.28-13.99-5.15 2.97 24.23 13.99 5.2-2.97z"/><path d="M476.28.48l24.29 14L533.41 62s-2.47-40.11 6.07-50.55C518.6 11.91 484-2.8 476.28.48z" fill="url(#j)"/><path d="M476.28.48l24.29 14L533.41 62s-12-35.84-3.42-46.28C509.12 16.18 484-2.8 476.28.48z" fill="url(#k)"/><path fill="#00c9e7" d="M500.76 14.62l-5.2 2.97 16.09 23.29 12.09 6.99-22.98-33.25z"/><path fill="#00eaf3" d="M500.76 14.62l-24.28-14-5.16 2.98 24.24 13.99 5.2-2.97z"/><path d="M433.79 193.46l1.32-1.15 1.32-1.2 1.3-1.24 1.29-1.28 1.27-1.32 1.24-1.37 1.23-1.4 1.21-1.44 1.19-1.48 1.15-1.51 1.14-1.54 31.17-43.34-54.18-31.13-74.31 43-24.24-14-63.16 36.44-40.86 23.6-1.72.11-5.23 2.37-4.33 1.89-1.46.61-4.19 1.73-4.27 1.77-10.55 4.26-13.18 5.35h-.23l-.23.06-.7.19-.89.34-.83.44-161.57 93.31.84-.44.88-.34.94-.25 1-.14 1-.05 1.05.06 1.08.16 1.11.25 1.13.36 1.14.45 1.15.55 1.16.64 10.25 5.91 93.89-54.56c31.1-18.07 81.69-18.07 113 0s31.46 47.38.36 65.45l-93.89 54.57 7.18 4.14 1.14.77 1.14.83 1.12.91 1.11 1 1.1 1 1.07 1.09 1.05 1.15 1 1.19 1 1.25 1 1.29.91 1.32.88 1.36 12.37 21.43v.59l161.57-93.28v-.49l-.05-.1-12.37-21.43-.87-1.36-.92-1.33-.95-1.28-1-1.25-1-1.19-1-1.15-1.08-1.09-1.09-1-1.11-1-1.13-.91-1.13-.83-1.15-.77 11.95-7.09 12.2-6.95 6.15-3.45L377.92 254l78.76-45.48-24.23-14zm-213.08.31l-1.16.66zm107 77.63l-.32.45-.51.38-.67.3-.24.06-.53.12-.83.07-.84-.07-.77-.18-.67-.3-100.56-58.09-3-1.75-3.49-2-.24-.13-.67-.39-.51-.38-.32-.45-.11-.48.11-.48.32-.45.51-.38.67-.3.77-.18.84-.07.83.07.77.18.67.3 108.05 62.38.51.39.32.44.11.48z" fill="url(#l)"/><path d="M448.41 76.3l-.8.46-.8.46-.8.46-.8.46-.8.47-.8.46-.8.46-.81.47-.8.47-.8.46-.8.46-.8.46-.8.46-.8.47-.8.46-.8.46-11.21 6.46 5.61 10.73L350.13 147l1.34-1.1 1.33-1.15 1.31-1.19 1.3-1.24 1.29-1.29 1.27-1.32 1.25-1.37 1.23-1.4 1.2-1.44 1.19-1.48 1.16-1.51 1.13-1.54 36-50.11 1.68-2.34 1.74-2.26 1.8-2.19 1.84-2.1 1.9-2 1.93-1.92 2-1.82 2-1.72 2-1.61 2-1.49 2.05-1.37 2.06-1.25 35-20.21z" fill="url(#c)"/><path fill="#c7d9eb" d="M459.19 38.59L448.41 76.3l63.24 36 29.86-26.19-82.32-47.52z"/><path d="M466.65 42.92l-11.93 37-3.64-2.07 11.06-35.75c.86.51 3.86 1.9 4.51.82z" fill="url(#b)"/><path d="M474.06 47.2l-11.94 37-3.64-2.08 11.07-35.71c.81.48 3.84 1.84 4.51.79z" fill="url(#m)"/><path d="M481.5 51.42l-11.94 37-3.64-2.07L477 50.61c.79.51 3.82 1.87 4.5.81z" fill="url(#n)"/><path d="M488.9 55.84L477 92.81l-3.64-2.07L484.39 55c.8.53 3.83 1.89 4.51.84z" fill="url(#o)"/><path d="M496.42 60.17l-11.94 37-3.64-2.08 11.07-35.71c.8.48 3.83 1.84 4.51.79z" fill="url(#p)"/><path d="M503.88 64.45l-11.94 37-3.64-2.08 11.07-35.71c.8.48 3.83 1.84 4.51.79z" fill="url(#q)"/><path d="M511.39 68.72l-11.93 37-3.64-2.07 11.06-35.71c.81.48 3.84 1.84 4.51.78z" fill="url(#r)"/><path d="M518.89 73.15l-11.93 37-3.64-2.07 11.07-35.71c.8.48 3.83 1.84 4.5.78z" fill="url(#s)"/><path d="M526.36 77.43l-11.94 37-3.64-2.07 11.07-35.71c.8.48 3.83 1.84 4.51.78z" fill="url(#t)"/><path d="M533.81 81.76l-11.94 37-3.64-2.07L529.3 81c.8.46 3.83 1.82 4.51.76z" fill="url(#u)"/><path fill="url(#v)" d="M424.44 90.16l23.97-13.86 63.24 36-26.03 13.19-61.18-35.33z"/><path fill="url(#w)" d="M495.55 17.6l-9.09 5.24-.37.25-.31.27-.25.29-.18.3-.11.32v.64l.11.32.18.31.25.29.31.27.37.24 25.19 14.54-16.1-23.28z"/><path fill="url(#d)" d="M198.5 315.16l-48.02 27.91-48.34-27.91 48.03-27.91 48.33 27.91z"/><path fill="url(#x)" d="M198.5 315.16l-.02 8.33-48.02 27.91.02-8.33 48.02-27.91z"/><path fill="url(#y)" d="M150.48 343.07l-.02 8.33-48.34-27.9.02-8.34 48.34 27.91z"/><path d="M157.45 321.1c.57.33.58.78 0 1.11a1.93 1.93 0 01-1.92 0l-5.41-3.12v4.79c0 .45-.57.78-1.34.78a1.92 1.92 0 01-1-.22.65.65 0 01-.39-.56v-6.35l-1.16-.67h-11a1.92 1.92 0 01-1-.22.65.65 0 01-.39-.56c0-.44.57-.78 1.34-.78h8.27l-5.4-3.12c-.58-.33-.58-.78 0-1.11a1.93 1.93 0 011.92 0zm9.09-7.3l-6.21 6.74L141 309.4l11.52-3.68a2.59 2.59 0 011.64.17l12.06 7c.51.24.61.63.32.91zm-12 .05l3.83-2.23c.58-.33.58-.77 0-1.11a2 2 0 00-1.93 0l-3.83 2.23c-.58.33-.57.78 0 1.11a1.93 1.93 0 001.92 0m-3.86-2.22l3.84-2.23c.57-.34.57-.78 0-1.12a2 2 0 00-1.93 0l-3.83 2.23c-.58.34-.57.78 0 1.11a2 2 0 001.93 0m7.72 4.45l3.83-2.23c.58-.33.58-.78 0-1.11a1.93 1.93 0 00-1.92 0l-3.86 2.27c-.58.33-.57.78 0 1.11a1.93 1.93 0 001.92 0" fill="#00eaf3"/><path fill="#248ca8" d="M223.28 213.27l-3.03-1.75-.02-.01-1.35-.78-.67-.3-.77-.18-.83-.07-.84.07-.53.12 3.49 2.02.01.01 103.64 59.84.67.29.77.18.84.07.83-.07.53-.12-102.74-59.32z"/><path fill="url(#z)" d="M327.76 270.44l-.32-.44-.51-.39-108.05-62.38-.67-.3-.77-.18-.83-.06-.84.06-.77.18-.67.3-.51.38-.32.45-.11.48.11.48.32.45.51.38.67.39.24.13.53-.12.84-.07.83.07.77.18.67.3 1.35.78.02.01 3.03 1.75 102.74 59.32.24-.06.67-.29.51-.39.32-.45.11-.48-.11-.48z"/><path fill="url(#A)" d="M327.76 270.44l-.32-.44-.51-.39-108.05-62.38-.67-.3-.77-.18-.83-.06-.84.06-.77.18-.67.3-.51.38-.32.45-.11.48.11.48.32.45.51.38.67.39.24.13.53-.12.84-.07.83.07.77.18.67.3 1.35.78.02.01 3.03 1.75 102.74 59.32.24-.06.67-.29.51-.39.32-.45.11-.48-.11-.48z"/><path d="M433.79 193.46l1.32-1.15 1.32-1.2 1.3-1.24 1.29-1.28 1.27-1.32 1.24-1.37 1.23-1.4 1.21-1.44 1.19-1.48 1.15-1.51 1.14-1.54 29.23-40.64-55.36-32L350.13 147l-24.24-14-63.16 36.5-40.86 23.6-1.72.11-5.23 2.37-4.33 1.89-1.46.61-4.19 1.73-4.27 1.77-10.55 4.26-13.18 5.35h-.23l-.23.06-.7.19-.89.34-.83.44-161.57 93.31.84-.44.88-.34.94-.25 1-.14 1-.05 1.05.06 1.08.16 1.11.25 1.13.36 1.14.45 1.15.55 1.16.64 130.79 75.51 1.14.77 1.14.83 1.12.91 1.11 1 1.1 1 1.07 1.09 1.05 1.15 1 1.19 1 1.25 1 1.29.91 1.32.88 1.36 12.37 21.43v.59l161.57-93.28v-.49l-.05-.1-12.37-21.43-.87-1.36-.92-1.33-.95-1.28-1-1.25-1-1.19-1-1.15-1.08-1.09-1.09-1-1.11-1-1.13-.91-1.13-.83-1.15-.77 11.95-7.09 12.2-6.95 6.15-3.45L377.92 254l78.76-45.48-24.23-14zm-213.08.31l-1.16.66zm107 77.63l-.32.45-.51.38-.67.3-.24.06-.53.12-.83.07-.84-.07-.77-.18-.67-.3-100.56-58.09-3-1.75-3.49-2-.24-.13-.67-.39-.51-.38-.32-.45-.11-.48.11-.48.32-.45.51-.38.67-.3.77-.18.84-.07.83.07.77.18.67.3 108.05 62.38.51.39.32.44.11.48z" fill="url(#B)"/><path d="M602.1 79.12l-12.12 7-59.25 34.21-2.05 1.25-2 1.37-2 1.49-2 1.61-2 1.72-2 1.82-1.93 1.92-1.89 2-1.85 2.11-1.79 2.19-1.75 2.26-1.67 2.34-36.05 50.11-1.13 1.54-1.16 1.51-1.18 1.48-1.28 1.44-1.23 1.4-1.25 1.37-1.27 1.32-1.25 1.29-1.3 1.24-1.32 1.19-1.38 1.15-1.34 1.1L377.92 254l-30.3 17.49-6.15 3.51-12.2 6.95-11.95 7.05 1.15.77 1.13.83 1.13.91 1.11 1 1.09 1 1.08 1.09 1 1.15 1 1.19 1 1.25.95 1.28.92 1.33.87 1.36 12.37 21.43.05.1v.43l1-1.56 6.3-10 7.05-11.74 6.95-11.72 5.19-8.64 9.16-5.43L590 152.58l45-26z" fill="url(#C)"/><path d="M602.1 79.12l-12.12 7-59.25 34.21-2.05 1.25-2 1.37-2 1.49-2 1.61-2 1.72-2 1.82-1.93 1.92-1.89 2-1.85 2.11-1.79 2.19-1.75 2.26-1.67 2.34-36.05 50.11-1.13 1.54-1.16 1.51-1.18 1.48-1.28 1.44-1.23 1.4-1.25 1.37-1.27 1.32-1.25 1.29-1.3 1.24-1.32 1.19-1.38 1.15-1.34 1.1L377.92 254l-30.3 17.49-6.15 3.51-12.2 6.95-11.95 7.05 1.15.77 1.13.83 1.13.91 1.11 1 1.09 1 1.08 1.09 1 1.15 1 1.19 1 1.25.95 1.28.92 1.33.87 1.36 12.37 21.43.05.1v.43l1-1.56 6.3-10 7.05-11.74 6.95-11.72 5.19-8.64 9.16-5.43L590 152.58l45-26z" fill="url(#D)"/><path d="M610.13 106l.29-.17v.48z" fill="#00e8f1"/><path d="M313.09 200.79l-53.33-31.89-56.58-33.83 12.62 75.63s106.07 61.22 106.26 61.35a4.87 4.87 0 003 .69zm-95.76-8.1z" opacity=".5" fill="url(#E)"/><path d="M315.86 198.84L262.53 167 206 133.11l13 79.38s103.26 59.61 103.66 59.83a4.49 4.49 0 004.88-.47 1.61 1.61 0 00.25-.35zm-95.77-6.33z" opacity=".3" fill="url(#F)"/><path d="M424.44 90.16l-.63 3.09c1.5.35 2.81 3.16.63 10.81l54.18 31.13 7-9.7-60.9-35.16" fill="url(#G)"/><path fill="#c7d9eb" d="M424.44 90.16l61.18 35.33-1.73 2.34-60.08-34.51.63-3.16z"/><path d="M486 52.31c-2.07-1.2-4.09-1.56-4.51-.83.42-.74-.9-2.3-2.95-3.48s-4.06-1.55-4.49-.81c.43-.74-.88-2.29-2.93-3.48s-4.05-1.53-4.48-.79c.43-.74-.9-2.31-3-3.5s-4.08-1.56-4.51-.82.9 2.31 3 3.5 4.09 1.56 4.51.82c-.42.74.89 2.29 2.93 3.47s4.05 1.54 4.48.8c-.43.74.89 2.3 2.94 3.49s4.07 1.55 4.49.81c-.42.74.91 2.3 3 3.5s4.09 1.56 4.52.82-.92-2.31-3-3.5z" fill="url(#H)"/><path d="M493.51 56.64c-2.07-1.2-4.1-1.57-4.53-.83s.91 2.31 3 3.51 4.1 1.57 4.53.83-.92-2.31-3-3.51z" fill="url(#I)"/><path d="M501 61c-2.06-1.19-4.08-1.56-4.51-.82s.9 2.31 3 3.5 4.08 1.56 4.51.82-.92-2.34-3-3.5z" fill="url(#J)"/><path d="M508.5 65.29c-2.07-1.2-4.1-1.56-4.52-.82s.9 2.3 3 3.5 4.1 1.56 4.52.82-.93-2.31-3-3.5z" fill="url(#K)"/><path d="M516 69.62c-2.07-1.2-4.1-1.57-4.53-.83s.91 2.31 3 3.51 4.1 1.56 4.52.82-.92-2.31-2.99-3.5z" fill="url(#L)"/><path d="M523.48 73.94c-2.06-1.19-4.08-1.56-4.51-.82s.9 2.31 3 3.5 4.08 1.55 4.51.81-.94-2.3-3-3.49z" fill="url(#M)"/><path d="M530.93 78.24c-2-1.19-4.07-1.55-4.49-.81s.89 2.3 2.95 3.49 4.07 1.55 4.5.81-.89-2.3-2.96-3.49z" fill="url(#N)"/><path d="M538.42 82.56c-2.08-1.19-4.11-1.57-4.53-.83s.91 2.32 3 3.51 4.11 1.57 4.53.83-.93-2.31-3-3.51z" fill="url(#O)"/><path d="M577.87 65.12l-9.09 5.25-.42.21-.47.18-.5.15-.53.1-.55.06h-1.12l-.55-.06-.53-.1-.5-.15-.47-.18-.42-.21-51.07-29.49-25.19-14.54-.37-.24-.31-.27-.25-.29-.18-.31-.11-.31v-.65l.11-.32.18-.3.25-.29.31-.27.37-.25 9.09-5.24-24.24-14-12.12 7-59.25 34.21-2.05 1.25-2.05 1.37-2 1.49-2 1.61-2 1.71-2 1.82-1.95 1.94-1.89 2-1.85 2.11-1.8 2.19-1.74 2.26-1.68 2.34-36 50.11-1.13 1.54-1.16 1.51-1.18 1.48-1.25 1.46-1.23 1.4-1.25 1.37-1.27 1.32-1.28 1.29-1.3 1.23-1.32 1.2-1.33 1.15-1.34 1.1 24.24 14 1.34-1.1 1.33-1.15 1.31-1.19 1.3-1.24 1.29-1.29 1.27-1.32 1.25-1.37 1.23-1.4 1.2-1.44 1.19-1.48 1.16-1.51 1.13-1.54 36-50.11 1.68-2.34 1.74-2.26 1.8-2.19 1.84-2.1 1.9-2 1.93-1.92 2-1.82 2-1.72 2-1.61 2-1.49 2-1.37 2.06-1.25 35-20.21c-.43.74.9 2.31 3 3.5s4.09 1.56 4.51.82c-.42.74.89 2.29 2.93 3.47s4.05 1.54 4.48.8c-.43.74.89 2.3 2.94 3.49s4.07 1.55 4.49.81c-.42.74.91 2.3 3 3.5s4.09 1.56 4.52.82c-.43.74.91 2.31 3 3.51s4.1 1.57 4.53.83c-.43.74.9 2.31 3 3.5s4.08 1.56 4.51.82c-.43.74.9 2.3 3 3.5s4.1 1.56 4.52.82c-.42.74.91 2.31 3 3.51s4.1 1.56 4.52.82c-.42.74.9 2.31 3 3.5s4.08 1.55 4.51.81c-.43.74.89 2.3 2.95 3.49s4.07 1.55 4.5.81c-.43.74.91 2.32 3 3.51s4.11 1.57 4.53.83l.1.06-.31.18-1.05.61-.23.13-1.18.68-.65.38-.77.44-1 .56-.4.23-1.05.61-.21.12-.83.48-.2.11-.35.2-.86.51-1 .58-.52.29-1.41.72-.12.07-.51.29-.82.48-.2.11-1 .59-.34.19-.74.43-.23.14-.4.23-.12.07-.13.07-.75.43-.82.48-.18.1-1.28.74-.55.32-.82.47-.83.48-.45.26-.91.53-.25.14-.73.42-.22.13-.3.17-.94.55-.93.53-.59.34-1.24.72-.19.11-.87.5-.48.27-.1.06-1.11.65-.21.12-.85.49-.12.06-.29.17-.29.17-.21.12-1.57.91-.35.2-1 .59-.18.11-.9.55-.19.14-.63.41h-.06l-.36.25-.23.15-.28.19-.26.17-.19.14-.1.07-.33.25-.26.18-.07.06-.55.4-.23.17-.3.22-.12.09-.37.3-.28.22-.52.42-.15.11-.58.47-.08.06-.08.07-.59.51-.12.1-.57.49-.25.22-.29.24-.14.14-.39.36-.29.26-.54.5-.13.13-.47.43-.14.14-.08.08-.65.64-.18.18-.48.48-.34.34-.07.07-.25.26-.51.55-.13.13-.43.47-.21.21-.27.3-.09.09-.27.31-.18.2-.11.13-.06.07-.08.09-.09.11-.33.37-.35.4-.12.13-.08.09-.18.21-.24.3-.38.47-.14.16-.31.38-.24.3-.09.1-.39.48-.1.13-.27.34-.31.41-.42.54-.19.25-.45.59-1.68 2.34-6.81 9.47-29.23 40.64-1.14 1.54-1.15 1.51-1.26 1.58-1.21 1.44-1.23 1.4-1.24 1.37-1.32 1.32-1.29 1.28-1.3 1.24-1.32 1.2-1.32 1.15-1.34 1.1 24.23 14 1.34-1.1 1.33-1.15 1.32-1.19 1.3-1.24 1.28-1.29 1.27-1.32 1.25-1.37 1.23-1.4 1.21-1.44 1.18-1.48 1.16-1.51 1.13-1.54 36.05-50.11 1.68-2.34 1.74-2.26 1.79-2.19 1.85-2.11 1.89-2 1.93-1.92 2-1.82 2-1.72 2-1.61 2-1.49 2-1.37 2.05-1.25L590 86.11l12.12-7zm-103.8-18zm7.43 4.29z" fill="url(#P)"/><path fill="url(#Q)" d="M381.38 263.87l1.71 2.47 243.3-140.6-24.94-36.07-2.61 1.49 23.23 33.61-240.69 139.1z"/><path d="M284.83 197.28A37.41 37.41 0 01297.08 209a127.3 127.3 0 017.08 12.59 32.34 32.34 0 003.78 5.94 8.44 8.44 0 002.24 1.92 2.36 2.36 0 011.06 1.84c0 .68-.48.95-1.07.61a15 15 0 01-4.56-4.5 56.92 56.92 0 01-3.63-6.22c-2.33-4.48-4.76-9.44-8.27-13.78a31.53 31.53 0 00-8.85-7.7 7.54 7.54 0 00-5.14-1.24A6.39 6.39 0 00276 201c-2.15 2.62-3.66 7-5.2 10.92a28.28 28.28 0 01-3.46 6.88 5.75 5.75 0 01-2.75 2.05 5.5 5.5 0 01-4.39-.8 11.68 11.68 0 01-2.53-2.07 28.07 28.07 0 01-2.34-2.93 85.36 85.36 0 01-4.56-7.53c-3.06-5.52-6.3-11.8-9.84-16.69a25.85 25.85 0 00-7.39-7.36c-3-1.73-5.66-2.16-8-1.35s-4.34 2.94-5.92 6.42c-.17.37-.57.43-1 .19a2 2 0 01-.41-.33 2 2 0 01-.57-1.93c1.68-3.7 3.88-6.07 6.56-7s5.8-.47 9.3 1.53a24.26 24.26 0 015.9 5 56.21 56.21 0 015.09 6.94c3.17 5 6 10.49 8.57 15.08a50.76 50.76 0 004.82 7.42 9 9 0 002.29 2.09 4.82 4.82 0 001.9.68 3 3 0 001.62-.26 6.82 6.82 0 002.8-3c1.69-2.92 3.05-7.39 4.79-11.32a17.4 17.4 0 014.32-6.46 6.45 6.45 0 013.65-1.5 9.87 9.87 0 015.58 1.61z" fill="url(#R)" opacity=".5"/><path d="M298.64 349.2s33-21.36 40.77-29.51c4.2-4.41-2.71-19.78 90.51-69.08-7.65 8.7-44.51 26.29-59.38 47.89-10.78 15.65-35.98 35.98-71.9 50.7z" fill="url(#S)"/><path d="M290.63 353.9s44.36-24.3 52.09-32.44c4.2-4.42-2-15.45 74.17-60.26-7.65 8.7-28.17 17.46-43 39.07-10.82 15.65-47.33 38.92-83.26 53.63z" fill="url(#T)"/><path d="M242.11 261.53c15 8.66 22.83 19.91 23.51 31.26.83-12.48-7-25.13-23.51-34.66-31.31-18.07-81.9-18.07-113 0l-94 54.61 2.93 1.69 91-52.9c31.17-18.07 81.76-18.07 113.07 0z" fill="#00eaf3"/><path d="M242.11 279c11.09 6.41 18.26 14.22 21.52 22.45.14-.4.51-1.34.64-1.76-2.9-8.86-10.29-17.33-22.16-24.19-31.31-18.07-81.9-18.07-113 0l-94 54.61 3 1.74 91-52.85c31.1-18 81.69-18 113 0z" fill="#00eaf3"/><path fill="#00eaf3" d="M38.16 331.89L6.79 313.77l7.83-4.52.69-.37.74-.29.77-.2.82-.13.84-.04.87.05.9.13.92.21.94.3.94.38.96.45.96.53 10.15 5.87 3.02-1.76-13.17-7.6-1.16-.64-1.15-.55-1.14-.45-1.13-.36-1.11-.25-1.08-.16-1.05-.06-1.02.05-.98.14-.94.25-.88.34-.84.45-12.37 7.14-.05.03-.04.06-.02.07-.01.08.01.09.02.09.03.1.05.1.06.08.07.08.07.06.08.05 34.75 20.07 3.02-1.75z"/><path fill="url(#U)" d="M163.1 389.49l-.9-1.19-.73-.53-1.64 1.25-11.23 6.53v.1l2.93 1.69 24.49 15.55-11.77-22.01-1.15-1.39z"/><path fill="#00eaf3" d="M180.72 417.17l-.03-.1-.03-.09-.05-.1-12.37-21.43-.88-1.36-.91-1.33-.96-1.28-.99-1.25-.24-.28-.77-.91-1.05-1.15-1.07-1.09-1.1-1.03-1.11-.97-1.12-.91-1.14-.83-1.14-.77-7.16-4.13v3.49l7.16 4.14.94.64.94.7.93.76.92.81.91.86.89.9.86.95.85.99.82 1.03.79 1.06.76 1.09.73 1.13 7.84 13.56-18.18-10.49-4.23-2.44-2.93-1.69v3.5l7.16 4.13 24.58 14.19.08.04.07.02h.07l.05-.02.05-.04.04-.06.02-.07.01-.08-.01-.09z"/><path fill="#00eaf3" d="M161.37 386.8l-1.1-1.03-1.11-.97-1.12-.91-1.14-.83-1.14-.77-7.16-4.13v3.49l7.16 4.14.94.64.94.7.93.76.92.81.34.32 2.37-1.37-.83-.85z"/><path d="M242.11 258.13c31.3 18.07 31.46 47.38.36 65.45l-94 54.61-113.32-65.45 94-54.61c31.06-18.07 81.65-18.07 112.96 0z" fill="url(#V)"/></g><path d="M482 98.48c1.41 1.69 1.29 7.66-1.6 11.82s-6.63 8.8-7 10.12-2.19 11.23-3 11.89-9.49 8.17-10.33 9.86a2.42 2.42 0 01-2.35 1.51l-.28-4 7.48-10.68 3-8.74 4-9.49z" opacity=".1" fill="url(#f)"/><path d="M516 89.83c2 .34 3.43-2 3.43-4.89s-3.78-7.75-3.78-7.75l-17.79-10.27L486.33 61l-4.87 1.22s10.24 4.32 15.41 7.24 14.47 7.89 14.47 7.89.54.39.38 1.51c-.37 2.52-1.49 6.86-.38 5.35 3.51-4.78 3.66 5.44 4.66 5.62z" opacity=".1" fill="url(#W)"/><path d="M468.79 108.2c-6.65-.43-4.77.33-11.9 2.17.81 1.84.77 12.81.77 14.42-.58 2.41-4.85 17-6.34 19s-3.21-3.28-2.86-4.2 6.09-15.75 5.75-16.9-4.5-12.78-3.35-14.51 10.94-3.09 10.94-3.09l7.47 1.73z" opacity=".1" fill="url(#X)"/><path d="M481.46 62.2c1 2.79 5.73 27.49.28 34.67s-5.89-5.31-5.89-5.31-3.59-18.53-3.73-19.1S471.4 59 471.4 59z" opacity=".1" fill="url(#Y)"/><path d="M452.69 99.22a118.69 118.69 0 0013.14-8C467.34 90 466.3 68 462.77 67s-2.5.26-2.5.26S466 84.86 463 89c-1.59 2.22-15.88 11-15.88 11l-.67 2.1z" opacity=".1" fill="url(#Z)"/><path d="M459.11 140.32c.38.22.8 2 .24 4.73s-2.79 5-3.57 4.94-1.73-3.82-1.08-6.26 1.29-4 1.85-4.08a10.14 10.14 0 012.56.67zm-10.88.68c.51-.64 1.34-.61 1.68-.84s1.41 2.57 1.41 3.7c0 .76-2.08 5.89-7.56 8.29-1.14.57-1.49.23-1.14-.91s1.04-4.57 5.61-10.24z" fill="#062066" fill-rule="evenodd"/><path d="M475.69 54.61c1.69.55 15.42 5 24 10s16.78 11 18.26 12.7 3.15 8.08 1.36 11-2-3.92-4.42-8.06a16.81 16.81 0 01-1.48 3.75c-.23.59-.68.26-.7-1.79s-.53-2.77-.23-5.14c-4.77-3.27-28-16.09-38.26-18.56.04-3.01 1.47-3.9 1.47-3.9z" fill="url(#g)"/><path d="M456 73.39c-.11 1.32-1.32 13.77-1.54 14.54a15.06 15.06 0 01-1.88 4.41c-1.43 2.42-5.22 8.85-6.1 9.73s-3.48 1.51-3 .74 6.06-12 6.72-14 1.61-6.71 2.27-15.52c.63-.63 3.53.1 3.53.1z" fill="url(#aa)"/><path d="M480.84 94.92s-13.23-1.56-17.39-.78-25.43 9.6-28.54 13-1.82 6-.78 10.33 11.42 21.07 12.46 22.89 2.38 2.51 3.15 1.48.74-1.48.24-2.78c0 0-2.61-9.34-3.36-12.16s-3.41-10.93-4.71-14.05c3.64-2.59 15.84-6 15.84-6a30.41 30.41 0 0111 1.35l-1.57 2.42c-3.37 5.19-9.6 23.61-10.9 27.24s1.56 4.68 3.12 3.38 14.27-22.32 16.08-25.69c1-1.8 5-6.32 6-9 3.21-5.89-.64-11.63-.64-11.63z" fill-rule="evenodd" fill="url(#ab)"/><path d="M457.23 56.94a39.12 39.12 0 00-1.61-6.29c-.58-1.45 3-3.26 3.65-3.39s1.55-1.64 3.53 4.37 1.67 9.55 1.67 9.55l-5 .8z" fill="url(#ac)"/><path d="M456.08 52c-.14-.47-.32-1-.46-1.37-.58-1.45 3-3.26 3.65-3.39s1.34-1.16 2.75 2.23c-.38.75-4.77 2.53-5.94 2.53z" opacity=".1" fill="url(#ad)"/><path d="M466.45 40.39c-1.07 3.19-2 8.94-12.56 12.14s-11.56-18.21-9.89-22.4 19.25-2.07 19.25-2.07l3.8 8.86z" fill="url(#ae)"/><path d="M480.84 94.92c.65-4.27 3.34-16.22-4.4-33.68 3 1 5.49 2.07 6.48 2.52s.87-4.85.77-6.38c-.11-1.82-8.87-4.69-11.48-5.14s-7.38-.54-8.1.45-1.54 5.91-2.59 7.33c-1.63 0-2.84-1.59-4.34-2-.63.09-4.07 1.62-4.25 3.78s-1.78 11.7-1.51 12.33 4.52.69 5.06.15 1.42-6.56 1.51-7.55c1.26 1.62 6.75 11.36 6.21 27.28.18 1.44 6.33 2.59 8.73 3 2.79.4 7.28 2.07 7.91-2.09z" fill-rule="evenodd" fill="url(#af)"/><path d="M439.13 17.87c0-.6 3.67 4.8 8.6 3.4s7.66-3.47 11.65-3.07c2.91.29 8.35 4.26 9.06 13.39a26.39 26.39 0 01-2.33 12.66c-.25.56-1.59 1.9-2 1.65s.19-1.94.46-2.78c1.33-4.13 0-5.39-1.07-5.86-3.32-1.49-3.13 3-3.86 3-1.66-.07-.27-14.22-8.93-9.56-11.07 5.93-11.58-2.77-11.58-12.83z" fill="url(#ag)"/></g></g></svg>